<?xml version="1.0" standalone="no"?>
<!DOCTYPE svg PUBLIC "-//W3C//DTD SVG 20010904//EN"
 "http://www.w3.org/TR/2001/REC-SVG-20010904/DTD/svg10.dtd">
<svg version="1.0" xmlns="http://www.w3.org/2000/svg"
 width="700.000000pt" height="700.000000pt" viewBox="0 0 700.000000 700.000000"
 preserveAspectRatio="xMidYMid meet">
<metadata>
Created by potrace 1.14, written by Peter Selinger 2001-2017
</metadata>
<g transform="translate(0.000000,700.000000) scale(0.100000,-0.100000)"
fill="#000000" stroke="none">
<path d="M3365 6452 c-189 -56 -328 -210 -359 -398 -7 -39 -11 -43 -54 -59
-110 -41 -258 -149 -313 -229 l-24 -36 -829 0 c-592 0 -840 -3 -867 -11 -50
-15 -105 -62 -129 -110 -67 -131 14 -296 154 -315 25 -4 46 -9 46 -11 0 -2
-64 -106 -143 -231 -254 -402 -581 -920 -625 -990 -23 -37 -51 -84 -61 -105
-56 -117 59 -239 181 -190 44 18 50 26 268 373 67 107 137 218 154 245 18 28
106 168 197 311 l164 262 40 -62 c23 -33 147 -229 276 -434 129 -205 272 -433
320 -508 99 -158 118 -180 169 -195 114 -34 217 94 161 201 -12 23 -392 630
-466 745 -40 63 -314 498 -343 546 l-22 36 975 0 c536 -1 975 -3 976 -6 4 -18
4 -4228 1 -4238 -3 -10 -65 -13 -264 -13 -281 0 -355 -10 -430 -57 -21 -13
-40 -23 -43 -23 -7 0 -42 -30 -90 -78 -74 -74 -135 -212 -135 -304 l0 -38
1250 0 1250 0 0 30 c0 150 -115 332 -259 408 -103 56 -147 62 -440 63 l-266 0
0 2127 1 2127 972 1 c630 0 972 -3 972 -9 0 -8 -396 -644 -565 -907 -247 -383
-269 -423 -270 -475 0 -65 29 -107 90 -131 38 -14 52 -15 84 -6 53 16 68 32
149 162 40 63 77 122 82 130 11 16 192 304 364 577 54 87 113 181 131 208 17
28 40 65 51 83 10 18 23 31 29 29 8 -3 67 -94 320 -497 102 -163 280 -444 352
-559 56 -87 73 -107 107 -122 134 -59 247 77 174 209 -12 23 -156 252 -318
509 -162 256 -308 487 -325 514 -16 27 -63 101 -102 164 -40 63 -73 118 -73
120 0 3 12 5 28 5 39 1 102 32 139 70 60 61 75 165 37 246 -21 45 -84 98 -133
112 -28 9 -267 12 -866 12 l-827 0 -21 28 c-80 103 -201 194 -308 233 -54 20
-57 23 -64 62 -4 23 -9 48 -11 56 -10 49 -80 165 -130 214 -127 126 -322 177
-489 129z"/>
<path d="M26 3602 l-28 -4 5 -111 c8 -142 11 -165 42 -272 118 -408 444 -706
870 -796 67 -15 325 -18 395 -6 392 69 709 325 863 697 46 112 69 227 81 423
l5 67 -37 0 c-220 3 -2174 4 -2196 2z m1964 -255 c0 -25 -65 -199 -92 -247
-242 -428 -769 -579 -1198 -343 -109 60 -181 120 -262 222 -80 100 -143 229
-171 351 l-6 25 864 0 c476 0 865 -4 865 -8z"/>
<path d="M4778 3602 l-37 -3 4 -57 c3 -31 7 -86 9 -122 38 -492 424 -912 926
-1005 58 -11 292 -14 345 -5 28 5 67 12 89 15 62 11 185 55 266 95 136 69 276
182 365 295 22 28 43 52 46 55 13 12 82 134 109 194 30 65 73 201 84 266 4 19
9 88 12 153 l7 117 -49 0 c-353 3 -2149 4 -2176 2z m1950 -287 c-12 -59 -49
-156 -70 -187 -10 -14 -18 -31 -18 -36 0 -16 -114 -163 -157 -202 -245 -226
-567 -301 -875 -204 -292 93 -531 350 -592 639 l-7 30 864 0 864 0 -9 -40z"/>
</g>
</svg>
